<?xml version="1.0" encoding="utf-8"?>
<!-- Generator: Adobe Illustrator 25.2.0, SVG Export Plug-In . SVG Version: 6.00 Build 0)  -->
<svg version="1.1" id="Layer_1" xmlns="http://www.w3.org/2000/svg" xmlns:xlink="http://www.w3.org/1999/xlink" x="0px" y="0px"
	 viewBox="0 0 292.9 105.6" style="enable-background:new 0 0 292.9 105.6;" xml:space="preserve">
<style type="text/css">
	.st0{fill:none;}
	.st1{fill:#636363;}
</style>
<rect x="-890.5" y="200.8" class="st0" width="21.4" height="42.9"/>
<path class="st1" d="M276.7,51.6c-0.3-0.3-0.7-0.3-1.1,0c-1.9,1.7-3.7,3.1-5.6,4.2c-1.8,1.1-3.6,2.1-5.3,2.8
	c-1.7,0.7-3.4,1.3-4.9,1.8c-1.6,0.4-3,0.8-4.4,1.1c-0.1-0.7-0.3-1.5-0.6-2.3s-0.6-1.5-1-2.3s-0.8-1.5-1.2-2.3s-0.7-1.5-1-2.3
	l2.9-4.3c0.7-1.1,1.1-2,1.3-2.8c0.2-0.8,0.2-1.4,0-1.9c-0.2-0.7-0.7-1.1-1.4-1.3s-1.4-0.2-2.1-0.1c-1,0.2-1.9,0.6-2.7,1.2
	c-0.7,0.6-1.4,1.3-1.8,2.2c-0.5,0.8-0.8,1.8-1,2.8s-0.2,2,0,3c0,0.1,0.1,0.3,0.1,0.6l0,0c-0.9,0.9-1.9,1.8-3.1,2.8
	c-1.2,0.9-2.5,1.8-3.8,2.7c-1.3,0.8-2.7,1.6-4.1,2.3c-1.4,0.7-2.8,1.3-4.1,1.8c-0.5,0.2-1.2,0.4-2,0.7c-0.8,0.2-1.7,0.4-2.6,0.5
	c-0.9,0.1-1.7,0-2.5-0.2s-1.4-0.6-1.8-1.3c-0.3-0.5-0.5-1.2-0.5-1.9s0-1.4,0.2-2.2c0.1-0.7,0.4-1.4,0.6-2.1c0.3-0.7,0.6-1.3,0.9-1.8
	c1.4-0.5,2.6-1.2,3.5-2s1.5-1.6,1.9-2.3c0.3-0.7,0.5-1.3,0.3-1.7c-0.1-0.4-0.4-0.7-0.7-0.9c-0.4-0.2-0.8-0.3-1.4-0.3
	c-0.6,0-1.1,0.1-1.6,0.2c-1,0.4-2.1,1.1-3.1,2.1s-1.9,2.2-2.6,3.5l0,0c-0.3,0.4-0.8,1-1.4,1.7c-0.6,0.7-1.3,1.5-2.1,2.3
	s-1.7,1.7-2.7,2.6c-1,0.9-2,1.7-3.1,2.5c-1,0.7-2.1,1.4-3.2,2c-1.2,0.7-2.4,1.2-3.7,1.6c-1.3,0.4-2.5,0.5-3.8,0.5s-2.5-0.5-3.6-1.3
	c-0.5-0.4-0.9-0.8-1.2-1.2s-0.7-0.8-1-1.2s-0.7-0.8-1-1.1s-0.8-0.6-1.3-0.8c1.2-0.8,2.5-1.9,3.8-3.1c1.3-1.2,2.3-2.5,3-3.8
	c0.1-0.2,0.1-0.5,0-0.6c-0.1-0.2-0.2-0.3-0.4-0.4c-0.2-0.1-0.4-0.1-0.6,0c-0.2,0.1-0.4,0.2-0.5,0.4c-0.6,1.2-1.6,2.4-2.8,3.5
	s-2.4,2.1-3.5,2.8c0.2-0.9,0.5-1.8,0.7-2.8c0.2-0.9,0.5-1.9,0.7-2.8c0.5-0.6,1.4-1.7,2.6-3.4c1.2-1.6,2.6-3.6,4.1-5.7
	c1.5-2.2,3-4.5,4.5-7s2.9-4.8,4.1-7.1c0.7-1.3,1.3-2.5,1.8-3.7c0.5-1.1,0.9-2.2,1.2-3.1c0.4-1.3,0.6-2.4,0.4-3.1
	c-0.2-0.7-0.6-1.2-1.1-1.5c-1.1-0.5-2.3-0.5-3.6,0c-1.2,0.6-2.4,1.3-3.5,2.2c-1.4,1.2-2.7,2.7-3.9,4.5s-2.3,3.7-3.2,5.7
	c-1,2-1.9,4-2.6,6c-0.8,2-1.5,3.9-2,5.6c-0.5,1.6-1.1,3.2-1.5,4.8c-0.5,1.6-0.9,3.2-1.3,4.9l0,0c-0.4,0.5-1.2,1.2-2.2,2
	s-2.2,1.7-3.5,2.6c-1.3,0.9-2.7,1.8-4.2,2.6s-3,1.6-4.6,2.2c-0.8,0.3-1.7,0.6-2.6,0.8c-1,0.2-1.9,0.4-2.9,0.4
	c-0.9,0-1.8-0.2-2.6-0.6s-1.5-1.1-2-2c-0.4-0.8-0.7-1.8-0.8-2.9c-0.1-1.2-0.1-2.6,0.1-4.2c0-0.6-0.2-1.1-0.8-1.6s-1.1-0.8-1.6-0.9
	c0.3-0.1,0.5-0.4,0.5-0.9c-0.1-0.6-0.4-1.1-0.9-1.4c-0.5-0.3-1-0.6-1.6-0.7c-0.8-0.2-1.7-0.3-2.6-0.1c-0.9,0.2-1.7,0.5-2.5,1
	s-1.6,1-2.3,1.7s-1.3,1.4-1.7,2.2l0,0c-0.6,0.6-1.4,1.3-2.5,2.2c-1.1,0.8-2.3,1.7-3.6,2.6c-1.3,0.9-2.8,1.8-4.3,2.7s-3,1.7-4.5,2.3
	c-0.5,0.2-1.3,0.5-2.2,0.9c-0.9,0.3-1.8,0.6-2.8,0.8s-1.9,0.2-2.7,0.1c-0.8-0.1-1.5-0.5-1.9-1.2c-0.5-0.8-0.7-1.9-0.5-3.3
	c0.2-1.3,0.6-2.7,1.2-4.1c0.6-1.4,1.3-2.7,2.1-4c0.8-1.2,1.5-2.2,2.1-2.8c0.1-0.1,0.4-0.3,0.6-0.6c0.3-0.2,0.5-0.4,0.8-0.5
	s0.5-0.2,0.7-0.1c0.2,0.1,0.4,0.3,0.4,0.7c0,0.5-0.1,1.3-0.4,2.2c-0.3,0.9-0.9,1.9-1.7,3.1c-0.3,0.4-0.2,0.8,0.2,1s0.8,0.1,1.1-0.3
	c0.9-1.4,1.6-2.6,1.9-3.7c0.3-1,0.5-1.9,0.4-2.6c-0.1-1-0.6-1.7-1.5-2s-1.7-0.3-2.6-0.2c-1.4,0.2-2.7,1-4,2.2s-2.4,2.7-3.3,4.4l0,0
	c-1.1,1.2-2.5,2.3-4.1,3.4c-1.7,1.1-3.5,2-5.4,2.9s-3.8,1.6-5.8,2.2c-1.9,0.6-3.7,1-5.4,1.3c0.5-0.7,1.1-1.5,1.7-2.4
	s1.1-1.8,1.5-2.8s0.8-2,1-3s0.3-2,0.1-2.9c-0.2-1.4-0.8-2.4-1.6-3.2c-0.8-0.7-1.8-1.2-2.9-1.4s-2.3-0.2-3.5,0.1
	c-1.2,0.2-2.3,0.6-3.3,1.2c-1.6,0.9-3.1,2.3-4.4,4.2s-2.6,4.1-3.7,6.5s-2.2,5-3.2,7.8s-1.9,5.5-2.7,8.3c0.7-3.5,1.6-7.1,2.5-10.6
	s2.1-7,3.4-10.4c2.8-3.5,4.8-6.2,6.1-8.2c1.3-2,2-3.4,2.3-4.3c0.2-0.6,0.2-1.2,0.1-1.6c-0.1-0.4-0.4-0.7-0.8-0.8s-0.8-0.1-1.3,0
	s-1,0.3-1.5,0.5c-1.7,0.9-3.4,2.6-4.8,5c-1.5,2.4-2.8,5.1-4,8.3l0,0c-0.5,0.6-1.4,1.6-2.6,2.8s-2.7,2.5-4.3,3.9
	c-1.6,1.4-3.4,2.8-5.3,4.2s-3.7,2.6-5.4,3.5c-0.5,0.2-1.1,0.6-1.9,0.9c-0.8,0.4-1.6,0.7-2.4,0.9C60.5,68,59.7,68,59,67.9
	s-1.2-0.6-1.5-1.3c-0.5-1.3-0.5-3.4,0.1-6.3c0.2-1,0.5-2.1,0.7-3.2c0.2-1.1,0.5-2.1,0.8-3.2c0.1-0.4,0-0.9-0.4-1.5s-0.8-1-1.2-1.3
	c-0.5-0.3-1-0.3-1.4-0.1s-0.6,0.6-0.8,1.2c-0.1,0.3-0.2,0.7-0.4,1.2c-0.1,0.4-0.3,0.9-0.6,1.4c-0.1,0.3-0.4,0.8-0.6,1.5
	c-0.3,0.6-0.6,1.3-1,2.1c-0.4,0.7-0.8,1.5-1.2,2.2s-0.9,1.3-1.4,1.8c-0.6,0.6-1.3,0.9-1.9,0.8c-0.6,0-1.1-0.5-1.3-1.5
	c-0.1-0.5-0.1-1.2,0-1.9s0.2-1.5,0.4-2.2s0.4-1.5,0.6-2.2c0.2-0.7,0.4-1.3,0.6-1.9c0.1-0.4,0-0.9-0.4-1.4s-0.8-0.9-1.2-1.1
	c-0.4-0.2-0.8-0.3-1.1-0.2s-0.6,0.3-0.8,0.7l0,0c-0.6,0.6-1.4,1.3-2.5,2.2c-1.1,0.8-2.3,1.7-3.6,2.6S36.5,58.1,35,59s-3,1.7-4.5,2.3
	c-0.5,0.2-1.3,0.5-2.2,0.9c-0.9,0.3-1.8,0.6-2.8,0.8s-1.9,0.2-2.7,0.1c-0.8-0.1-1.5-0.5-1.9-1.2c-0.5-0.8-0.7-1.9-0.5-3.3
	c0.2-1.3,0.6-2.7,1.2-4.1c0.6-1.4,1.3-2.7,2.1-4c0.8-1.2,1.5-2.2,2.1-2.8c0.1-0.1,0.4-0.3,0.6-0.6c0.3-0.2,0.5-0.4,0.8-0.5
	s0.5-0.2,0.7-0.1c0.2,0.1,0.4,0.3,0.4,0.7c0,0.5-0.1,1.3-0.4,2.2s-0.9,1.9-1.7,3.1c-0.3,0.4-0.2,0.8,0.2,1c0.4,0.2,0.8,0.1,1.1-0.3
	c0.9-1.4,1.6-2.6,1.9-3.7c0.3-1,0.5-1.9,0.4-2.6c-0.1-1-0.6-1.7-1.5-2s-1.7-0.3-2.6-0.2c-1.4,0.2-2.7,1-4,2.2s-2.4,2.7-3.3,4.4
	s-1.6,3.6-1.9,5.4c-0.3,1.9-0.1,3.5,0.6,4.8c0.6,1.2,1.5,2,2.6,2.4s2.3,0.6,3.6,0.5c1.3-0.1,2.6-0.3,3.9-0.7
	c1.3-0.4,2.4-0.8,3.4-1.3c1.5-0.6,3.1-1.4,4.7-2.3c1.6-0.9,3-1.8,4.4-2.8c1.4-0.9,2.6-1.8,3.8-2.7c0.2-0.2,0.4-0.3,0.6-0.5
	c-0.1,0.4-0.2,0.8-0.4,1.3c-0.3,1.1-0.5,2.4-0.6,3.8c-0.1,1.4,0.2,2.6,0.9,3.6c0.4,0.5,0.9,1,1.5,1.3c0.6,0.3,1.2,0.5,1.9,0.5
	c0.7,0.1,1.3,0,2-0.2c0.6-0.2,1.2-0.5,1.7-1c0.4-0.4,0.9-0.9,1.2-1.4c0.4-0.5,0.7-1,0.9-1.4c-0.2,1.1-0.2,2.3-0.1,3.5
	c0.1,1.2,0.6,2.2,1.4,3.2c0.7,0.9,1.6,1.5,2.6,1.8s2,0.3,3,0.2c1-0.1,2.1-0.4,3.1-0.8c1-0.4,1.9-0.9,2.8-1.3c1.8-1,3.6-2.2,5.6-3.6
	c1.9-1.4,3.7-2.8,5.4-4.3c1.7-1.4,3.2-2.8,4.5-4.1c0.1-0.1,0.2-0.2,0.3-0.3c-0.4,1.3-0.9,2.6-1.3,3.9c-0.8,2.6-1.5,5-2,7.5
	C77.9,68.7,77.4,71,77,73c-0.4,2.1-0.8,3.9-1.1,5.3c-0.2,1-0.4,2.1-0.6,3.4S75,84.2,75,85.3c0,1.2,0.1,2.2,0.3,3.1
	c0.2,0.8,0.7,1.4,1.4,1.6c0.8,0.3,1.4,0,1.6-1c0.3-1,0.6-2.1,1-3.4c0.3-1.2,0.7-2.6,1.1-4c0.8-2.9,1.8-6.1,2.8-9.6s2.2-6.8,3.4-10
	c1.3-3.2,2.7-6,4.2-8.5s3.2-4.3,5-5.3c0.9-0.5,1.9-0.9,2.8-1s1.7,0,2.4,0.3c0.7,0.3,1.2,0.8,1.5,1.6c0.3,0.7,0.3,1.7,0.1,2.9
	c-0.4,1.7-1.1,3.5-2,5.2c-1,1.7-2,3.2-3.2,4.5c-1,0.1-2.2,0-3.3-0.1c-1.2-0.1-2.3-0.1-3.3,0.1c-1.1,0.2-1.9,0.7-2.5,1.4
	c-0.5,0.7-0.8,1.3-0.7,2c0.1,0.7,0.6,1.2,1.4,1.7s2.1,0.6,3.8,0.5c1.5-0.1,3-0.6,4.3-1.4s2.5-1.7,3.6-2.8c1.8-0.2,3.9-0.6,6.1-1.2
	c2.2-0.6,4.4-1.4,6.5-2.3c2.1-0.9,4.1-2,6-3.2c0.8-0.5,1.5-1,2.2-1.6c-0.2,0.7-0.4,1.5-0.5,2.3c-0.3,1.9-0.1,3.5,0.6,4.8
	c0.6,1.2,1.5,2,2.6,2.4s2.3,0.6,3.6,0.5s2.6-0.3,3.9-0.7c1.3-0.4,2.4-0.8,3.4-1.3c1.5-0.6,3.1-1.4,4.7-2.3c1.6-0.9,3-1.8,4.4-2.8
	c1.4-0.9,2.6-1.8,3.8-2.7c0.2-0.1,0.3-0.3,0.5-0.4c-0.1,0.6,0,1.1,0.2,1.7c0.2,0.9,0.7,1.5,1.3,1.8s1.3,0.4,2,0.4
	c0.7-0.1,1.5-0.3,2.2-0.7s1.4-0.8,1.9-1.3c0.4-0.3,0.8-0.8,1.2-1.2c0.4-0.5,0.8-1,1.3-1.5c-0.1,1.7,0,3.3,0.4,4.9
	c0.4,1.6,1.4,2.9,2.9,4c0.9,0.6,1.9,1,2.9,1.2c1,0.2,2.1,0.2,3.2,0.1c1.1-0.1,2.1-0.2,3.2-0.5c1.1-0.3,2.1-0.6,3-0.9
	c1.6-0.6,3.2-1.4,4.8-2.3c1.6-0.9,3.1-1.8,4.4-2.8c1.4-0.9,2.6-1.8,3.6-2.7c0.2-0.2,0.4-0.3,0.6-0.5c-0.5,2-1,4-1.4,5.9
	c-0.6,2.8-1.3,5.6-2,8.4c0,0.2,0,0.5,0,0.9c0.1,0.3,0.2,0.6,0.3,1c0.1,0.3,0.3,0.6,0.5,0.9s0.4,0.5,0.6,0.6c0.4,0.3,0.8,0.3,1.2,0.1
	c0.4-0.2,0.7-0.5,0.8-1c0.4-1.5,0.8-3,1.2-4.5s0.7-3,1.1-4.5c1.4,2.1,3,3.5,4.8,4.3c1.3,0.5,2.7,0.8,4.2,0.7c1.5-0.1,3-0.4,4.5-0.9
	s3-1.1,4.4-1.9c1.4-0.7,2.6-1.5,3.7-2.2c1.1-0.8,2.2-1.7,3.2-2.6c1-0.9,2-1.8,2.8-2.7c0.3-0.3,0.7-0.7,1-1c-0.1,0.3-0.1,0.6-0.2,0.9
	c-0.2,1.7,0.1,3.3,0.9,4.5c0.6,1,1.5,1.7,2.5,2.1c1,0.4,2.1,0.6,3.3,0.7c1.1,0,2.3-0.1,3.5-0.3s2.3-0.5,3.2-0.9
	c1.4-0.5,2.8-1.1,4.3-1.9c1.5-0.8,2.9-1.6,4.4-2.5c1.4-0.9,2.7-1.8,4-2.8c1-0.8,1.9-1.5,2.7-2.3c0.1,0.4,0.3,0.8,0.5,1.2
	c0.5,0.9,0.9,1.9,1.4,2.8c0.4,0.9,0.8,1.8,1.2,2.7c0.3,0.9,0.5,1.7,0.5,2.4c-1.1,0.2-2.2,0.5-3.1,0.9c-0.9,0.3-1.7,0.8-2.3,1.4
	c-0.7,0.7-1.1,1.4-1.1,2s0.1,1.1,0.6,1.6c0.4,0.4,1,0.7,1.7,0.9c0.7,0.1,1.5,0.1,2.3-0.1c1.3-0.3,2.5-1,3.8-2.1
	c1.2-1,1.9-2.3,2.2-3.7c1.4-0.3,3-0.7,4.6-1.1c1.6-0.4,3.4-1,5.2-1.8c1.8-0.8,3.7-1.8,5.6-3s3.9-2.7,5.9-4.5
	C276.9,52.3,277,51.9,276.7,51.6z M226.8,48.9c0.6-0.7,1.1-1.1,1.6-1.3c-0.1,0.6-0.5,1.3-1.2,1.8c-0.6,0.6-1.2,1-1.8,1.2
	C225.7,50.2,226.2,49.6,226.8,48.9z M195.6,42.3c0.8-2.5,1.7-4.9,2.8-7.5c1-2.5,2.2-4.9,3.5-7.2s2.6-4.3,4.1-5.9
	c0.5-0.5,1-1.1,1.6-1.5c0.6-0.5,1.1-0.8,1.5-0.9s0.7,0,0.9,0.4c0.1,0.4,0,1.2-0.4,2.4c-0.2,0.8-0.6,1.8-1.2,2.9
	c-0.5,1.1-1.1,2.3-1.8,3.6c-0.9,1.7-2,3.6-3.1,5.5s-2.3,3.8-3.5,5.6s-2.3,3.6-3.5,5.1c-1.1,1.6-2.1,2.9-2.9,4
	C194.1,47,194.8,44.8,195.6,42.3z M92.5,65.2c-0.9,0.3-1.7,0.4-2.2,0.3s-0.8-0.3-0.9-0.6c-0.1-0.3,0-0.6,0.3-0.9
	c0.3-0.3,0.8-0.6,1.5-0.7c0.7-0.2,1.6-0.2,2.4-0.1c0.9,0.1,1.7,0.2,2.3,0.2C94.8,64.2,93.7,64.8,92.5,65.2z M159.3,50.4
	c-0.7,1.1-1.4,2.1-2,2.9c-0.6,0.8-1.2,1.5-1.8,2c-0.4,0.3-0.8,0.6-1.2,0.9c-0.4,0.2-0.7,0.4-1,0.4c-0.3,0.1-0.5,0-0.6-0.3
	c-0.1-0.2-0.1-0.7,0-1.4c0.1-0.6,0.4-1.2,0.7-1.9c0.3-0.6,0.7-1.3,1.1-1.9c0.4-0.6,0.9-1.1,1.5-1.6c0.5-0.4,1.1-0.8,1.6-1
	c0.4-0.1,0.8-0.2,1.3-0.1c0.4,0.1,0.7,0.4,0.8,0.9c0,0.2,0.1,0.4,0.2,0.4C159.7,49.8,159.5,50,159.3,50.4z M249.6,65.6
	c-0.6,0.5-1.2,0.9-1.8,1.2c-0.7,0.2-1.2,0.2-1.5,0s-0.1-0.7,0.5-1.3c0.8-0.7,2.1-1.2,4-1.6C250.5,64.4,250.1,65,249.6,65.6z
	 M251.1,50.5c-0.2-1-0.3-2.2-0.1-3.4s0.7-2.2,1.5-3c0.2-0.1,0.5-0.3,1-0.5c0.4-0.2,0.7-0.1,0.9,0.3c0.1,0.3,0.1,0.7-0.1,1.3
	c-0.2,0.5-0.5,1.2-1.1,2.1L251.1,50.5z"/>
</svg>
